<svg width="64" height="64" viewBox="0 0 64 64" fill="none" xmlns="http://www.w3.org/2000/svg">
<g clip-path="url(#clip0_8928_24226)">
<path fill-rule="evenodd" clip-rule="evenodd" d="M39.8337 0.182617C40.743 0.182617 41.6151 0.543841 42.258 1.18682C42.901 1.8298 43.2622 2.70187 43.2622 3.61119V9.04205H36.4051V3.61119C36.4051 2.70187 36.7663 1.8298 37.4093 1.18682C38.0523 0.543841 38.9244 0.182617 39.8337 0.182617ZM27.5822 9.04205V3.61119C27.5822 2.70187 27.221 1.8298 26.578 1.18682C25.9351 0.543841 25.063 0.182617 24.1537 0.182617C23.2444 0.182617 22.3723 0.543841 21.7293 1.18682C21.0863 1.8298 20.7251 2.70187 20.7251 3.61119V9.04205H27.5822ZM9.1411 20.6352H3.5731C2.66379 20.6352 1.79172 20.9964 1.14874 21.6394C0.505755 22.2824 0.144531 23.1544 0.144531 24.0638C0.144531 24.9731 0.505755 25.8451 1.14874 26.4881C1.79172 27.1311 2.66379 27.4923 3.5731 27.4923H9.1411V20.6352ZM9.1411 36.3152H3.5731C2.66379 36.3152 1.79172 36.6764 1.14874 37.3194C0.505755 37.9624 0.144531 38.8344 0.144531 39.7438C0.144531 40.6531 0.505755 41.5251 1.14874 42.1681C1.79172 42.8111 2.66379 43.1723 3.5731 43.1723H9.1411V36.3152ZM20.7297 54.7518V60.3883C20.7297 61.2976 21.0909 62.1697 21.7339 62.8127C22.3769 63.4557 23.2489 63.8169 24.1582 63.8169C25.0676 63.8169 25.9396 63.4557 26.5826 62.8127C27.2256 62.1697 27.5868 61.2976 27.5868 60.3883V54.7518H20.7297ZM36.4097 54.7518V60.3883C36.4097 61.2976 36.7709 62.1697 37.4139 62.8127C38.0569 63.4557 38.9289 63.8169 39.8382 63.8169C40.7476 63.8169 41.6196 63.4557 42.2626 62.8127C42.9056 62.1697 43.2668 61.2976 43.2668 60.3883V54.7518H36.4097ZM54.8554 43.1678H60.428C61.3373 43.1678 62.2094 42.8065 62.8523 42.1636C63.4953 41.5206 63.8565 40.6485 63.8565 39.7392C63.8565 38.8299 63.4953 37.9578 62.8523 37.3148C62.2094 36.6718 61.3373 36.3106 60.428 36.3106H54.8508V43.1678H54.8554ZM54.8554 27.4878H60.428C61.3373 27.4878 62.2094 27.1265 62.8523 26.4836C63.4953 25.8406 63.8565 24.9685 63.8565 24.0592C63.8565 23.1499 63.4953 22.2778 62.8523 21.6348C62.2094 20.9918 61.3373 20.6306 60.428 20.6306H54.8508V27.4878H54.8554Z" fill="#CDFF71" fill-opacity="0.2"/>
<path fill-rule="evenodd" clip-rule="evenodd" d="M15.99 9.04199C14.1713 9.04199 12.4272 9.76444 11.1412 11.0504C9.85526 12.3364 9.13281 14.0805 9.13281 15.8991V47.8991C9.13281 49.7178 9.85526 51.4619 11.1412 52.7479C12.4272 54.0338 14.1713 54.7563 15.99 54.7563H47.99C49.8086 54.7563 51.5527 54.0338 52.8387 52.7479C54.1246 51.4619 54.8471 49.7178 54.8471 47.8991V15.8991C54.8471 14.0805 54.1246 12.3364 52.8387 11.0504C51.5527 9.76444 49.8086 9.04199 47.99 9.04199H15.99Z" fill="white" fill-opacity="0.05"/>
<path fill-rule="evenodd" clip-rule="evenodd" d="M35.4049 20.7539C34.5683 17.083 29.3386 17.1059 28.5341 20.7813L28.5021 20.9184L28.4472 21.179C28.0372 23.0181 27.09 24.6939 25.7259 25.9937C24.3618 27.2935 22.6422 28.1588 20.7855 28.4796C16.9546 29.147 16.9592 34.6464 20.7855 35.3139C22.6485 35.6367 24.3729 36.5077 25.7384 37.8154C27.104 39.1232 28.0487 40.8083 28.4518 42.6556L28.5341 43.0122C29.3386 46.6876 34.5683 46.7104 35.4049 43.0442L35.4963 42.6236C35.9195 40.7833 36.876 39.1088 38.2461 37.8094C39.6163 36.51 41.3391 35.6436 43.1992 35.3184C47.0346 34.651 47.0346 29.147 43.1992 28.475C41.3502 28.1509 39.6367 27.2918 38.2709 26.0039C36.9051 24.7161 35.9468 23.0561 35.5146 21.2293L35.4415 20.9093L35.4049 20.7539Z" fill="#CDFF71"/>
</g>
<defs>
<clipPath id="clip0_8928_24226">
<rect width="64" height="64" fill="white"/>
</clipPath>
</defs>
</svg>
