<svg width="64" height="64" viewBox="0 0 64 64" fill="none" xmlns="http://www.w3.org/2000/svg">
<path d="M4.38908 46.942C5.09369 53.5278 10.3906 58.8248 16.9733 59.5585C21.8626 60.1035 26.8828 60.5716 32.0011 60.5716C37.1194 60.5716 42.1396 60.1035 47.029 59.5585C53.6116 58.8248 58.9086 53.5278 59.6132 46.942C60.1333 42.0802 60.5725 37.0888 60.5725 32.0001C60.5725 26.9114 60.1333 21.9201 59.6132 17.0583C58.9086 10.4725 53.6116 5.17551 47.029 4.44178C42.1396 3.89679 37.1194 3.42871 32.0011 3.42871C26.8828 3.42871 21.8626 3.89679 16.9733 4.44178C10.3906 5.17551 5.09368 10.4725 4.38908 17.0583C3.86893 21.92 3.42969 26.9114 3.42969 32.0001C3.42969 37.0888 3.86893 42.0802 4.38908 46.942Z" fill="white" fill-opacity="0.05" stroke="white" stroke-opacity="0.05" stroke-width="6.85714" stroke-linecap="round" stroke-linejoin="round"/>
<path d="M59.7401 18.2859L4.25781 18.2859C4.30014 17.8758 4.34325 17.4666 4.38693 17.0583C5.09154 10.4725 10.3885 5.17551 16.9711 4.44178C21.8605 3.89679 26.8806 3.42871 31.999 3.42871C37.1173 3.42871 42.1375 3.89679 47.0268 4.44178C53.6095 5.17551 58.9064 10.4725 59.611 17.0583C59.6547 17.4666 59.6978 17.8758 59.7401 18.2859Z" fill="#CDFF71"/>
<path d="M19.4314 31.7705L12.5742 38.6277L19.4314 45.4848" stroke="#CDFF71" stroke-width="5" stroke-linecap="round" stroke-linejoin="round"/>
<path d="M44.5703 31.7705L51.4275 38.6277L44.5703 45.4848" stroke="#CDFF71" stroke-width="5" stroke-linecap="round" stroke-linejoin="round"/>
<path d="M28.5703 47.7706L35.4275 27.1992" stroke="#CDFF71" stroke-width="5" stroke-linecap="round" stroke-linejoin="round"/>
</svg>
