<svg width="48" height="48" viewBox="0 0 48 48" fill="none" xmlns="http://www.w3.org/2000/svg">
<g clip-path="url(#clip0_8113_13667)">
<path d="M0 24C0 16.5449 0 12.8174 1.21793 9.87706C2.84183 5.95662 5.95662 2.84183 9.87706 1.21793C12.8174 0 16.5449 0 24 0C31.4551 0 35.1826 0 38.1229 1.21793C42.0434 2.84183 45.1582 5.95662 46.7821 9.87706C48 12.8174 48 16.5449 48 24C48 31.4551 48 35.1826 46.7821 38.1229C45.1582 42.0434 42.0434 45.1582 38.1229 46.7821C35.1826 48 31.4551 48 24 48C16.5449 48 12.8174 48 9.87706 46.7821C5.95662 45.1582 2.84183 42.0434 1.21793 38.1229C0 35.1826 0 31.4551 0 24Z" fill="url(#paint0_linear_8113_13667)"/>
<path d="M36 17.3992C36 19.056 34.6569 20.3992 33 20.3992H22.7998C20.149 20.3993 18.0001 22.5482 18 25.199V54.5994C18 56.2562 16.6569 57.5994 15 57.5994C13.3431 57.5994 12 56.2562 12 54.5994V25.199C12.0001 19.2345 16.8353 14.3993 22.7998 14.3992H33C34.6569 14.3992 36 15.7423 36 17.3992Z" fill="white"/>
<path d="M20.9375 31.0901C20.9375 29.4332 22.2806 28.0901 23.9375 28.0901H28.7375C30.3944 28.0901 31.7375 29.4332 31.7375 31.0901C31.7375 32.7469 30.3944 34.0901 28.7375 34.0901H23.9375C22.2806 34.0901 20.9375 32.7469 20.9375 31.0901Z" fill="white"/>
</g>
<defs>
<linearGradient id="paint0_linear_8113_13667" x1="0" y1="0" x2="48" y2="48" gradientUnits="userSpaceOnUse">
<stop stop-color="#6B73FF"/>
<stop offset="1" stop-color="#000DFF"/>
</linearGradient>
<clipPath id="clip0_8113_13667">
<path d="M0 24C0 10.7452 10.7452 0 24 0C37.2548 0 48 10.7452 48 24C48 37.2548 37.2548 48 24 48C10.7452 48 0 37.2548 0 24Z" fill="white"/>
</clipPath>
</defs>
</svg>
