<svg width="64" height="64" viewBox="0 0 64 64" fill="none" xmlns="http://www.w3.org/2000/svg">
<path d="M31.998 31.7723C37.3492 31.7723 41.6873 27.4342 41.6873 22.0829C41.6873 16.7316 37.3492 12.3936 31.998 12.3936C26.6467 12.3936 22.3086 16.7316 22.3086 22.0829C22.3086 27.4342 26.6467 31.7723 31.998 31.7723Z" fill="#CDFF71" stroke="white" stroke-opacity="0.1" stroke-width="6.85714" stroke-linecap="round" stroke-linejoin="round"/>
<path d="M47.8232 46.7358C46.9768 43.3249 45.0486 40.272 42.3179 38.0401C39.4064 35.6603 35.7617 34.3604 32.0014 34.3604C28.2411 34.3604 24.5964 35.6603 21.6849 38.0401C18.9543 40.272 17.026 43.3249 16.1797 46.7357C16.9976 47.0085 17.8517 47.199 18.7318 47.2971C23.0492 47.7783 27.482 48.1916 32.0016 48.1916C36.5211 48.1916 40.954 47.7783 45.2713 47.2971C46.1514 47.199 47.0053 47.0086 47.8232 46.7358Z" fill="#CDFF71" stroke="white" stroke-opacity="0.1" stroke-width="6.85714" stroke-linecap="round" stroke-linejoin="round"/>
<path d="M45.7461 4.30957C47.4414 4.49219 49.1215 4.68794 50.7849 4.88073C55.1712 5.3891 58.671 8.88667 59.1637 13.2747C59.3492 14.9275 59.5363 16.5966 59.7102 18.2809" stroke="white" stroke-opacity="0.1" stroke-width="6.85714" stroke-linecap="round"/>
<path d="M45.7461 59.6904C47.4414 59.5078 49.1215 59.3121 50.7849 59.1193C55.1712 58.6109 58.671 55.1133 59.1637 50.7253C59.3492 49.0725 59.5363 47.4034 59.7102 45.7191" stroke="white" stroke-opacity="0.1" stroke-width="6.85714" stroke-linecap="round"/>
<path d="M18.25 4.30957C16.5547 4.49219 14.8746 4.68794 13.2112 4.88073C8.82494 5.3891 5.32507 8.88667 4.83243 13.2747C4.64688 14.9275 4.4598 16.5966 4.28589 18.2809" stroke="white" stroke-opacity="0.1" stroke-width="6.85714" stroke-linecap="round"/>
<path d="M18.25 59.6904C16.5547 59.5078 14.8746 59.3121 13.2112 59.1193C8.82494 58.6109 5.32507 55.1133 4.83243 50.7253C4.64688 49.0725 4.4598 47.4034 4.28589 45.7191" stroke="white" stroke-opacity="0.1" stroke-width="6.85714" stroke-linecap="round"/>
</svg>
