<svg width="20" height="21" viewBox="0 0 20 21" fill="none" xmlns="http://www.w3.org/2000/svg">
<path d="M9.99297 2.16699C5.39297 2.16699 1.66797 5.90033 1.66797 10.5003C1.66797 15.1003 5.39297 18.8337 9.99297 18.8337C14.6013 18.8337 18.3346 15.1003 18.3346 10.5003C18.3346 5.90033 14.6013 2.16699 9.99297 2.16699ZM12.6846 14.992L10.0013 13.3753L7.31797 14.992C7.0013 15.1837 6.60964 14.9003 6.69297 14.542L7.4013 11.492L5.04297 9.45033C4.76797 9.20866 4.91797 8.75033 5.28464 8.71699L8.4013 8.45033L9.61797 5.57533C9.75964 5.23366 10.243 5.23366 10.3846 5.57533L11.6013 8.44199L14.718 8.70866C15.0846 8.74199 15.2346 9.20033 14.9513 9.44199L12.593 11.4837L13.3013 14.542C13.3846 14.9003 13.0013 15.1837 12.6846 14.992Z" fill="#FB923C"/>
</svg>
